<svg xmlns="http://www.w3.org/2000/svg" xmlns:xlink="http://www.w3.org/1999/xlink" viewBox="0 0 312.07 29.19"><defs><style>.cls-1{fill:url(#linear-gradient);}</style><linearGradient id="linear-gradient" y1="14.59" x2="312.07" y2="14.59" gradientUnits="userSpaceOnUse"><stop offset="0" stop-color="#2bb5a2"/><stop offset="1" stop-color="#4c84df"/></linearGradient></defs><g id="Layer_2" data-name="Layer 2"><g id="Layer_1-2" data-name="Layer 1"><path class="cls-1" d="M306.18.88a5,5,0,0,1,5,5V23.3a5,5,0,0,1-5,5H5.89a5,5,0,0,1-5-5V5.89a5,5,0,0,1,5-5H306.18m0-.88H5.89A5.89,5.89,0,0,0,0,5.89V23.3a5.89,5.89,0,0,0,5.89,5.89H306.18a5.89,5.89,0,0,0,5.89-5.89V5.89A5.89,5.89,0,0,0,306.18,0Z"/></g></g></svg>