<svg xmlns="http://www.w3.org/2000/svg" xmlns:xlink="http://www.w3.org/1999/xlink" viewBox="0 0 366.06 34.24"><defs><style>.cls-1{fill:url(#linear-gradient);}</style><linearGradient id="linear-gradient" y1="17.12" x2="366.06" y2="17.12" gradientUnits="userSpaceOnUse"><stop offset="0" stop-color="#2bb5a2"/><stop offset="1" stop-color="#4c84df"/></linearGradient></defs><g id="Layer_2" data-name="Layer 2"><g id="Layer_1-2" data-name="Layer 1"><path class="cls-1" d="M359.15.88a6,6,0,0,1,6,6V27.33a6,6,0,0,1-6,6H6.91a6,6,0,0,1-6-6V6.91a6,6,0,0,1,6-6H359.15m0-.88H6.91A6.91,6.91,0,0,0,0,6.91V27.33a6.91,6.91,0,0,0,6.91,6.91H359.15a6.91,6.91,0,0,0,6.91-6.91V6.91A6.91,6.91,0,0,0,359.15,0Z"/></g></g></svg>