<svg xmlns:xlink="http://www.w3.org/1999/xlink" xmlns="http://www.w3.org/2000/svg" viewBox="0 0 190.46 191.52">
    <defs>
        <style>
            .cls-1{fill:none;}.cls-2{clip-path:url(#clip-path);}.cls-3{fill:url(#linear-gradient);}.cls-4{fill:url(#linear-gradient-2);}.cls-5{fill:url(#linear-gradient-3);}
        </style>
        <clipPath id="clip-path" transform="translate(0)">
            <circle class="cls-1" cx="95.23" cy="95.23" r="95.23"/>
        </clipPath>
        <linearGradient id="linear-gradient" x1="29.9" y1="152.54" x2="160.84" y2="152.54"
                        gradientUnits="userSpaceOnUse">
            <stop offset="0" stop-color="#2bb5a2"/>
            <stop offset="1" stop-color="#5887da"/>
        </linearGradient>
        <linearGradient id="linear-gradient-2" x1="60.69" y1="81.16" x2="130.05" y2="81.16"
                        xlink:href="#linear-gradient"/>
        <linearGradient id="linear-gradient-3" x1="0" y1="95.23" x2="190.46" y2="95.23" xlink:href="#linear-gradient"/>
    </defs>
    <title>Account Icon</title>
    <g id="Layer_2" data-name="Layer 2">
        <g id="Layer_1-2" data-name="Layer 1">
            <g class="cls-2">
                <path class="cls-3"
                      d="M127.09,121A54.1,54.1,0,0,1,154.84,168v15.55a1.92,1.92,0,0,1-1.93,1.93H37.83a1.93,1.93,0,0,1-1.93-1.93V168A54.1,54.1,0,0,1,63.65,121a43.72,43.72,0,0,0,63.44,0m-1.4-7.43c-.21.26-.41.52-.63.77-7.86,9.22-18.4,14.29-29.69,14.29s-21.83-5.07-29.69-14.29c-.21-.25-.42-.51-.62-.77A60.07,60.07,0,0,0,29.9,168v15.55a7.93,7.93,0,0,0,7.93,7.93H152.91a7.93,7.93,0,0,0,7.93-7.93V168a60.06,60.06,0,0,0-35.15-54.49Z"
                      transform="translate(0)"/>
                <path class="cls-4"
                      d="M95.37,46.51c15.82,0,28.68,15.55,28.68,34.65,0,9.78-3.46,19.16-9.51,25.74-5.28,5.75-12.09,8.92-19.17,8.92s-13.88-3.17-19.17-8.92c-6-6.58-9.51-16-9.51-25.74,0-19.1,12.87-34.65,28.68-34.65m0-6c-19.15,0-34.68,18.2-34.68,40.65A44,44,0,0,0,71.79,111c6.18,6.73,14.47,10.86,23.58,10.86S112.77,117.69,119,111a44,44,0,0,0,11.09-29.8c0-22.45-15.52-40.65-34.68-40.65Z"
                      transform="translate(0)"/>
            </g>
            <path class="cls-5"
                  d="M95.23,6A89.23,89.23,0,1,1,6,95.23,89.33,89.33,0,0,1,95.23,6m0-6a95.23,95.23,0,1,0,95.23,95.23A95.24,95.24,0,0,0,95.23,0Z"
                  transform="translate(0)"/>
        </g>
    </g>
</svg>