<svg xmlns="http://www.w3.org/2000/svg" viewBox="0 0 50.37 71.96">
    <defs>
        <style>.cls-1{fill:#eaf0f2;}</style>
    </defs>
    <title>Lock Icon</title>
    <g id="Layer_2" data-name="Layer 2">
        <g id="Layer_1-2" data-name="Layer 1">
            <path class="cls-1"
                  d="M40.11,72H10.26A10.27,10.27,0,0,1,0,61.71V36.86A10.27,10.27,0,0,1,10.26,26.61H40.11A10.27,10.27,0,0,1,50.37,36.86V61.71A10.27,10.27,0,0,1,40.11,72ZM10.26,35.37a1.5,1.5,0,0,0-1.5,1.49V61.71a1.5,1.5,0,0,0,1.5,1.49H40.11a1.49,1.49,0,0,0,1.5-1.49V36.86a1.49,1.49,0,0,0-1.5-1.49Z"/>
            <path class="cls-1" d="M12.41,31H3.65V21.54a21.54,21.54,0,1,1,43.07,0H38a12.78,12.78,0,1,0-25.55,0Z"/>
        </g>
    </g>
</svg>