<svg xmlns="http://www.w3.org/2000/svg" xmlns:xlink="http://www.w3.org/1999/xlink" viewBox="0 0 410.2 410.2"><defs><style>.cls-1{fill:#fff;}.cls-2{fill:url(#linear-gradient);}</style><linearGradient id="linear-gradient" y1="205.1" x2="410.2" y2="205.1" gradientUnits="userSpaceOnUse"><stop offset="0" stop-color="#2bb5a2"/><stop offset="1" stop-color="#5887da"/></linearGradient></defs><title>Fetch Circular Icon</title><g id="Layer_2" data-name="Layer 2"><g id="Layer_1-2" data-name="Layer 1"><rect class="cls-1" x="101.33" y="101.33" width="25.16" height="25.16"/><rect class="cls-1" x="164.22" y="101.33" width="25.16" height="25.16"/><rect class="cls-1" x="227.11" y="101.33" width="25.16" height="25.16"/><rect class="cls-1" x="101.33" y="164.22" width="25.16" height="25.16"/><rect class="cls-1" x="164.22" y="164.22" width="25.16" height="25.16"/><rect class="cls-1" x="101.33" y="227.11" width="25.16" height="25.16"/><circle class="cls-1" cx="302.58" cy="113.91" r="6.29"/><circle class="cls-1" cx="302.58" cy="176.8" r="6.29"/><circle class="cls-1" cx="302.58" cy="239.69" r="6.29"/><circle class="cls-1" cx="302.58" cy="302.58" r="6.29"/><circle class="cls-1" cx="239.69" cy="176.8" r="6.29"/><circle class="cls-1" cx="239.69" cy="239.69" r="6.29"/><circle class="cls-1" cx="239.69" cy="302.58" r="6.29"/><circle class="cls-1" cx="176.8" cy="239.69" r="6.29"/><circle class="cls-1" cx="176.8" cy="302.58" r="6.29"/><circle class="cls-1" cx="113.91" cy="302.58" r="6.29"/><path class="cls-2" d="M205.1,6a199.16,199.16,0,0,1,77.5,382.56,199.16,199.16,0,0,1-155-366.92A197.9,197.9,0,0,1,205.1,6m0-6C91.83,0,0,91.83,0,205.1S91.83,410.2,205.1,410.2s205.1-91.83,205.1-205.1S318.37,0,205.1,0Z"/></g></g></svg>